<svg height="512" viewBox="0 0 60 56" width="512" xmlns="http://www.w3.org/2000/svg"><g id="Page-1" fill="none" fill-rule="evenodd"><g id="020---Download-Message" fill="rgb(0,0,0)"><path id="Shape" d="m51 0h-42c-4.96827817.00551113-8.99448887 4.03172183-9 9v28c.00551113 4.9682782 4.03172183 8.9944889 9 9h13.451l5.017 7.891c.5539877.862005 1.5083269 1.3831081 2.533 1.3831081s1.9790123-.5211031 2.533-1.3831081l5.015-7.891h13.451c4.9682782-.0055111 8.9944889-4.0317218 9-9v-28c-.0055111-4.96827817-4.0317218-8.99448887-9-9zm7 37c-.0044086 3.8641657-3.1358343 6.9955914-7 7h-14c-.3419963-.0001429-.660348.1744979-.844.463l-5.307 8.347c-.1945584.2767719-.511687.4414877-.85.4414877s-.6554416-.1647158-.85-.4414877l-5.309-8.35c-.1835955-.2861601-.5000079-.4594336-.84-.46h-14c-3.86416566-.0044086-6.99559136-3.1358343-7-7v-28c.00440864-3.86416566 3.13583434-6.99559136 7-7h42c3.8641657.00440864 6.9955914 3.13583434 7 7z" fill-rule="nonzero"/><path id="Path" d="m9 4c-2.76005315.00330612-4.99669388 2.23994685-5 5 .00000001.55228474.44771526.99999998 1 .99999998s.99999999-.44771524 1-.99999998c0-1.65685425 1.34314575-3 3-3 .55228475 0 1-.44771525 1-1s-.44771525-1-1-1z"/><path id="Path" d="m55 36c-.5522847 0-1 .4477153-1 1 0 1.6568542-1.3431458 3-3 3-.5522847 0-1 .4477153-1 1s.4477153 1 1 1c2.7600532-.0033061 4.9966939-2.2399468 5-5 0-.5522847-.4477153-1-1-1z"/><path id="Path" d="m46 27c-.5522847 0-1 .4477153-1 1v6c0 .5522847-.4477153 1-1 1h-28c-.5522847 0-1-.4477153-1-1v-6c0-.5522847-.4477153-1-1-1s-1 .4477153-1 1v6c0 1.6568542 1.3431458 3 3 3h28c1.6568542 0 3-1.3431458 3-3v-6c0-.5522847-.4477153-1-1-1z"/><path id="Path" d="m29.375 32.781c.3653328.2925003.8846672.2925003 1.25 0l5-4c.2790244-.223291.4177293-.5784781.3638658-.9317659-.0538634-.3532877-.2921121-.6510032-.625-.781-.3328878-.1299967-.7098414-.0725251-.9888658.1507659l-3.375 2.7v-19.919c0-.55228475-.4477153-1-1-1s-1 .44771525-1 1v19.919l-3.375-2.7c-.4313344-.345178-1.060822-.2753344-1.406.156s-.2753344 1.060822.156 1.406z"/></g></g></svg>